<mxfile host="app.diagrams.net" modified="2024-04-14T09:23:45.026Z" agent="Mozilla/5.0 (Macintosh; Intel Mac OS X 10_15_7) AppleWebKit/537.36 (KHTML, like Gecko) Chrome/123.0.0.0 Safari/537.36" version="24.2.5" etag="J36Y7XeB9i4ZkuFMyh5w" type="github">
  <diagram name="Page-1" id="hL5SyCC7W-5exfeZGxr8">
    <mxGraphModel>
      <root>
        <mxCell id="0" />
        <mxCell id="1" parent="0" />
      </root>
    </mxGraphModel>
  </diagram>
</mxfile>
